<svg height="512pt" viewBox="0 -4 512 511" width="512pt" xmlns="http://www.w3.org/2000/svg"><path d="m401.066406 495.433594h-290.132812v-349.867188c0-80.121094 64.945312-145.066406 145.066406-145.066406s145.066406 64.945312 145.066406 145.066406zm0 0" fill="#63381f"/><path d="m145.066406 145.566406h221.867188v349.867188h-221.867188zm0 0" fill="#dcceba"/><path d="m503.464844 503.964844h-494.929688c-4.710937 0-8.535156-3.820313-8.535156-8.53125 0-4.710938 3.824219-8.535156 8.535156-8.535156h494.929688c4.710937 0 8.535156 3.824218 8.535156 8.535156 0 4.710937-3.824219 8.53125-8.535156 8.53125zm0 0" fill="#7383bf"/><g fill="#79a4d7"><path d="m209.066406 179.699219c-16.496094 0-29.867187 13.371093-29.867187 29.867187v140.800782h59.734375v-140.800782c0-16.496094-13.371094-29.867187-29.867188-29.867187zm0 0"/><path d="m273.066406 209.566406v140.800782h59.734375v-140.800782c0-16.496094-13.371093-29.867187-29.867187-29.867187s-29.867188 13.371093-29.867188 29.867187zm0 0"/><path d="m179.199219 384.5h59.734375v76.800781h-59.734375zm0 0"/><path d="m273.066406 384.5h59.734375v76.800781h-59.734375zm0 0"/></g><path d="m256 34.632812c-61.269531 0-110.933594 49.664063-110.933594 110.933594h221.867188c0-61.269531-49.664063-110.933594-110.933594-110.933594zm0 0" fill="#bcac99"/><path d="m268.066406 145.566406 72.125-72.125c-3.714844-4.324218-7.742187-8.351562-12.066406-12.066406l-84.191406 84.191406zm0 0" fill="#938270"/><path d="m256 34.632812c-2.882812 0-5.707031.214844-8.535156.4375v110.496094h17.070312v-110.496094c-2.828125-.222656-5.652344-.4375-8.535156-.4375zm0 0" fill="#938270"/><path d="m243.933594 145.566406h24.132812l-84.191406-84.191406c-4.324219 3.714844-8.351562 7.742188-12.066406 12.066406zm0 0" fill="#938270"/></svg>